<?xml version="1.0" standalone="no"?>
<!DOCTYPE svg PUBLIC "-//W3C//DTD SVG 20010904//EN"
 "http://www.w3.org/TR/2001/REC-SVG-20010904/DTD/svg10.dtd">
<svg version="1.0" xmlns="http://www.w3.org/2000/svg"
 width="500.000000pt" height="500.000000pt" viewBox="0 0 500.000000 500.000000"
 preserveAspectRatio="xMidYMid meet">

<g transform="translate(0.000000,500.000000) scale(0.100000,-0.100000)"
fill="#000000" stroke="none">
<path d="M1934 3885 c-14 -22 -15 -35 -6 -89 10 -60 64 -211 82 -230 5 -5 -5
29 -21 75 -43 124 -37 159 25 159 73 0 203 -100 352 -271 111 -127 234 -289
234 -307 0 -15 -70 -121 -92 -140 -41 -33 -320 -74 -518 -75 -153 0 -212 12
-236 48 -15 23 -15 27 0 50 22 33 3 32 -23 -1 -49 -63 -36 -97 46 -115 120
-27 527 -10 661 27 12 4 22 2 22 -3 0 -15 -135 -181 -209 -256 -60 -62 -150
-127 -177 -127 -23 0 -47 29 -54 66 l-7 39 -7 -37 c-14 -65 12 -118 57 -118
70 0 236 147 388 345 l85 110 84 22 c46 12 85 21 87 19 9 -9 113 -240 127
-283 10 -29 16 -69 14 -90 l-3 -38 -52 1 c-29 1 -53 0 -53 -2 0 -8 81 -44 99
-44 26 0 61 46 61 80 0 44 -37 153 -91 268 -27 57 -49 110 -49 116 0 6 52 29
115 50 264 89 409 189 367 252 -16 24 -74 44 -144 48 -40 3 -62 3 -48 0 75
-15 90 -25 90 -56 0 -67 -166 -172 -367 -231 l-52 -16 -34 46 -34 47 39 70
c129 231 228 467 228 544 0 109 -122 89 -245 -40 -33 -34 -46 -51 -30 -37 138
120 194 116 182 -12 -3 -31 -15 -88 -27 -125 -29 -92 -153 -339 -170 -339 -8
0 -66 65 -131 145 -158 196 -378 420 -446 454 -67 33 -98 33 -119 1z m721
-739 c11 -32 -3 -46 -48 -46 l-28 0 22 40 c25 45 39 47 54 6z"/>
<path d="M3567 3420 c6 -175 -10 -293 -61 -435 -131 -366 -468 -661 -849 -741
-92 -19 -358 -19 -470 1 -109 19 -159 36 -273 90 -167 80 -345 237 -450 394
-70 105 -70 89 -1 -34 60 -106 94 -152 175 -237 161 -168 349 -274 585 -330
113 -26 351 -31 462 -9 101 20 257 75 334 117 219 120 405 326 507 563 101
232 121 531 50 726 -13 37 -14 30 -9 -105z"/>
<path d="M2411 3264 c-27 -35 -27 -65 2 -92 33 -31 80 -29 106 4 12 15 21 34
21 44 0 34 -39 70 -75 70 -24 0 -39 -7 -54 -26z"/>
<path d="M1940 1594 c-87 -35 -120 -74 -120 -141 0 -69 45 -109 150 -133 57
-13 100 -34 100 -50 0 -20 -34 -40 -69 -40 -37 0 -71 23 -71 48 0 8 -21 12
-60 12 l-60 0 0 150 0 150 -60 0 -59 0 -3 -121 -3 -120 -83 120 -83 121 -54 0
-55 0 0 -230 0 -230 65 0 64 0 3 119 3 119 80 -119 80 -118 53 -1 52 0 0 53 0
52 20 -33 c29 -48 88 -72 180 -72 61 0 83 5 117 24 l42 24 -9 -24 c-9 -24 -9
-24 59 -24 l68 0 13 45 13 45 77 0 78 0 14 -42 15 -43 67 -3 c74 -3 70 -9 48
58 -2 8 3 5 12 -8 27 -35 74 -54 136 -54 87 0 154 45 170 114 6 26 8 19 9 -39
l1 -73 165 0 165 0 0 50 0 50 -100 0 -100 0 0 40 0 40 95 0 95 0 0 50 0 50
-95 0 -95 0 0 40 0 40 99 0 100 0 4 28 c2 15 5 -66 6 -180 l1 -208 65 0 65 0
0 75 c0 71 1 75 23 75 18 0 30 -14 60 -75 l37 -75 69 0 70 0 -45 80 c-49 89
-51 95 -28 108 8 5 24 22 35 38 l19 29 0 -35 c0 -86 51 -169 126 -205 50 -24
152 -22 202 4 42 21 102 86 102 109 0 7 5 10 10 7 6 -3 10 -15 10 -25 0 -26
48 -80 87 -96 39 -17 160 -18 200 -3 72 27 106 96 84 169 -15 50 -49 74 -141
99 -81 23 -104 39 -94 64 13 36 102 33 111 -3 5 -17 14 -20 64 -20 55 0 59 2
59 23 0 67 -83 126 -178 127 -127 0 -209 -80 -182 -179 13 -49 45 -73 125 -96
93 -25 115 -36 115 -54 0 -27 -21 -41 -62 -41 -37 0 -78 26 -78 50 0 5 -25 10
-56 12 l-55 3 -3 75 c-2 87 -27 145 -78 183 -116 86 -279 52 -343 -71 -20 -40
-24 -43 -25 -22 0 35 -34 87 -72 110 -29 17 -51 20 -165 20 -96 0 -133 -3
-136 -12 -4 -10 -6 -10 -6 0 -1 9 -54 12 -231 12 l-230 0 0 -173 c0 -121 -4
-177 -12 -185 -19 -19 -46 -14 -64 13 -14 22 -23 25 -74 25 -46 0 -59 -4 -62
-16 -2 -9 -29 63 -61 160 l-58 176 -87 0 -87 0 -55 -162 c-50 -151 -54 -160
-61 -128 -9 44 -55 85 -111 101 -113 30 -123 34 -127 53 -8 47 75 63 107 21
17 -21 28 -25 77 -25 l57 0 -6 28 c-8 34 -34 70 -68 95 -27 20 -146 34 -178
21z m1567 -116 c7 -6 13 -23 13 -39 0 -34 -32 -59 -77 -59 l-33 0 0 61 0 62
42 -7 c23 -4 48 -12 55 -18z m429 -11 c53 -46 43 -192 -16 -222 -36 -19 -54
-19 -89 0 -39 19 -54 63 -49 135 3 45 10 66 28 85 31 33 88 34 126 2z m-1502
-129 c6 -27 5 -28 -39 -28 -31 0 -45 4 -45 13 0 16 29 118 38 131 5 9 31 -56
46 -116z"/>
<path d="M530 1360 l0 -230 60 0 59 0 3 138 3 137 54 -138 54 -138 36 3 36 3
50 129 50 128 3 -131 3 -131 229 0 230 0 0 50 0 50 -100 0 -100 0 0 40 0 40
95 0 95 0 0 50 0 50 -95 0 -95 0 0 40 0 40 100 0 100 0 0 50 0 50 -247 -2
-247 -3 -50 -122 c-28 -67 -54 -124 -57 -128 -3 -3 -15 19 -27 48 -11 30 -34
88 -52 130 l-32 77 -79 0 -79 0 0 -230z"/>
<path d="M2053 930 c-45 -18 -58 -95 -23 -130 27 -27 75 -26 94 2 18 25 12 39
-7 16 -35 -43 -87 -19 -87 41 0 20 5 42 12 49 17 17 53 15 68 -3 7 -8 18 -15
24 -15 6 0 -2 12 -17 25 -31 27 -32 28 -64 15z"/>
<path d="M2890 927 c-16 -8 -28 -26 -34 -50 -8 -31 -6 -42 11 -65 26 -35 72
-41 98 -12 10 11 15 23 11 27 -4 5 -12 0 -17 -10 -11 -20 -59 -23 -77 -5 -17
17 -15 74 4 92 20 21 43 20 66 -1 22 -19 33 -13 15 9 -18 23 -49 29 -77 15z"/>
<path d="M3200 922 c-30 -24 -22 -46 26 -69 45 -22 52 -38 24 -53 -17 -9 -26
-8 -46 5 -25 16 -33 8 -12 -13 19 -19 65 -14 82 9 20 29 11 45 -35 63 -40 16
-51 42 -23 53 9 3 25 1 36 -6 21 -13 38 -7 22 8 -21 20 -52 21 -74 3z"/>
<path d="M1400 855 l0 -75 45 0 c25 0 45 5 45 10 0 6 -16 10 -35 10 l-35 0 0
65 c0 37 -4 65 -10 65 -6 0 -10 -32 -10 -75z"/>
<path d="M1740 903 c-6 -15 -18 -47 -27 -71 -9 -23 -13 -46 -9 -49 4 -4 9 2
12 14 4 14 16 22 35 25 33 5 43 0 53 -27 5 -11 10 -15 12 -9 6 15 -41 137 -55
142 -6 2 -16 -9 -21 -25z m34 -25 c9 -35 8 -38 -14 -38 -11 0 -20 3 -20 8 0
19 13 52 20 52 4 0 10 -10 14 -22z"/>
<path d="M2340 855 l0 -75 45 0 c25 0 45 5 45 10 0 6 -16 10 -35 10 l-35 0 0
65 c0 37 -4 65 -10 65 -6 0 -10 -32 -10 -75z"/>
<path d="M2630 855 c0 -43 4 -75 10 -75 6 0 10 32 10 75 0 43 -4 75 -10 75 -6
0 -10 -32 -10 -75z"/>
<path d="M3512 878 c-30 -82 -34 -98 -24 -98 5 0 12 9 15 20 4 15 14 20 40 20
26 0 36 -5 40 -20 3 -11 10 -20 15 -20 13 0 -40 142 -55 147 -6 2 -20 -20 -31
-49z m36 -36 c-29 -5 -32 3 -17 39 l13 32 11 -34 c11 -31 10 -34 -7 -37z"/>
</g>
</svg>
